<?xml version="1.0" standalone="no"?>
<!DOCTYPE svg PUBLIC "-//W3C//DTD SVG 20010904//EN"
 "http://www.w3.org/TR/2001/REC-SVG-20010904/DTD/svg10.dtd">
<svg version="1.0" xmlns="http://www.w3.org/2000/svg"
 width="826.000000pt" height="737.000000pt" viewBox="0 0 826.000000 737.000000"
 preserveAspectRatio="xMidYMid meet">

<g transform="translate(0.000000,737.000000) scale(0.100000,-0.100000)"
fill="#000000" stroke="none">
<path d="M3930 7323 c-122 -42 -210 -173 -210 -314 l0 -46 -1462 -6 c-805 -4
-1642 -10 -1860 -14 l-398 -6 0 -1625 0 -1624 32 6 c27 5 199 30 427 62 40 5
43 4 32 -10 -7 -8 -10 -19 -7 -24 3 -4 -45 -61 -107 -125 l-112 -117 -132 0
c-82 0 -133 -4 -133 -10 0 -6 47 -10 122 -10 l122 0 -69 -70 c-38 -38 -65 -70
-59 -70 15 0 83 51 119 90 17 17 39 37 50 43 14 8 125 14 345 17 l325 6 -312
2 c-172 1 -313 6 -313 11 0 12 268 251 282 251 6 0 19 7 29 16 15 14 77 17
460 23 408 7 479 6 479 -6 0 -2 -36 -58 -80 -123 -44 -66 -74 -120 -67 -120 8
0 58 54 113 119 61 74 110 124 128 130 19 7 185 11 482 11 371 0 454 -2 454
-13 0 -8 -15 -53 -34 -100 -47 -121 -22 -114 49 13 l56 100 268 0 269 0 16 41
c9 23 15 43 12 46 -2 2 -9 -12 -16 -31 l-12 -36 -259 0 c-142 0 -259 3 -259 6
0 14 26 52 54 78 l31 30 244 4 243 4 -11 -21 c-7 -11 8 -1 33 23 55 53 134 75
203 57 57 -16 69 -33 56 -82 -9 -34 -8 -41 7 -52 32 -22 41 -56 40 -145 0 -48
0 -107 0 -132 -1 -94 -34 -443 -46 -474 -9 -24 -194 -21 -194 4 0 9 -5 21 -10
26 -6 6 -13 42 -16 80 -3 38 -9 80 -14 94 -5 14 -11 84 -14 155 -4 72 -9 173
-12 226 -4 66 -3 103 6 118 6 13 9 25 6 28 -8 8 -46 -27 -46 -41 0 -6 -12 -29
-27 -51 -25 -37 -28 -49 -30 -150 -3 -117 20 -376 61 -695 13 -107 28 -231 31
-275 4 -44 9 -83 11 -87 3 -4 5 -94 5 -200 1 -225 3 -249 27 -241 13 5 12 0
-5 -18 -22 -24 -22 -30 -17 -174 7 -230 23 -352 55 -424 10 -24 21 -54 23 -67
3 -13 8 -29 12 -35 4 -7 7 -31 7 -53 l0 -41 -73 -3 c-40 -2 -79 -1 -85 2 -10
3 -9 22 1 83 23 131 31 203 23 203 -4 0 -17 -55 -29 -122 -11 -68 -25 -133
-30 -146 l-10 -22 -797 -2 -798 -3 800 -5 c703 -4 800 -7 798 -20 -4 -28 -154
-875 -164 -926 l-10 -51 -997 -6 c-548 -3 -1000 -3 -1003 1 -3 4 96 228 220
497 l226 490 45 6 c25 3 34 7 20 8 -51 3 -54 13 -21 86 42 92 31 95 -15 4 -20
-41 -38 -76 -41 -79 -3 -3 -336 -7 -741 -10 l-737 -5 733 -3 c402 -1 732 -5
732 -9 0 -5 -103 -228 -229 -498 l-228 -490 -502 -3 c-275 -1 -501 -6 -501
-10 0 -4 223 -6 495 -4 272 1 495 -1 495 -5 -1 -5 -25 -60 -54 -123 -32 -68
-49 -117 -43 -119 6 -2 13 0 15 5 2 5 29 61 60 124 l57 115 1003 3 1002 2 0
-22 c0 -13 -9 -69 -19 -126 -15 -81 -16 -102 -5 -102 16 0 18 9 40 141 l18
106 254 6 c141 4 358 7 484 7 l228 0 83 -57 c167 -115 213 -146 270 -174 l57
-29 278 2 c242 3 274 5 250 17 l-26 13 25 23 c25 21 26 24 14 70 -7 26 -28 67
-48 91 l-35 44 89 0 90 0 14 -127 c10 -90 18 -128 28 -131 15 -5 14 10 -5 196
l-7 62 100 0 100 0 124 -71 c68 -38 131 -74 139 -80 8 -5 61 -32 117 -59 l102
-50 248 2 c226 3 244 4 203 17 l-45 13 27 14 c22 12 26 20 23 48 -4 48 -75
144 -115 158 -8 2 204 8 471 11 268 4 493 5 500 2 8 -3 36 -62 64 -131 42
-109 65 -147 79 -133 2 2 -18 59 -45 127 -27 68 -47 128 -44 133 4 5 225 9
556 9 410 0 549 3 549 12 0 8 -136 10 -552 5 -304 -3 -559 -3 -565 1 -17 11
-405 971 -398 983 4 5 303 9 761 9 475 0 754 4 754 10 0 6 -277 7 -757 4 -417
-3 -763 -2 -769 3 -15 11 -305 725 -298 732 7 8 1442 13 1471 6 15 -3 76 -84
187 -247 120 -175 166 -234 166 -216 0 16 -52 100 -145 234 -80 115 -146 214
-148 219 -1 6 56 12 148 15 l150 6 -156 2 c-139 2 -158 4 -173 21 -25 27 -375
534 -376 544 0 4 158 7 350 7 227 0 350 4 350 10 0 6 -126 10 -358 10 -329 0
-360 1 -374 18 -21 24 -288 419 -288 426 0 3 230 6 510 6 401 0 510 3 510 13
0 9 -111 12 -521 12 l-521 0 -104 160 c-58 88 -109 168 -115 179 -11 18 -2 18
278 14 l288 -5 255 -57 c290 -65 322 -75 370 -120 19 -18 43 -38 53 -45 16
-13 17 77 17 1842 l0 1855 -132 6 c-206 9 -1400 16 -2643 16 l-1131 0 -1 53
c-3 115 -54 221 -132 272 -81 54 -201 70 -291 38z m123 -170 c-13 -2 -33 -2
-45 0 -13 2 -3 4 22 4 25 0 35 -2 23 -4z m15 -30 c-15 -2 -42 -2 -60 0 -18 2
-6 4 27 4 33 0 48 -2 33 -4z m-203 -499 c88 -150 270 -143 349 15 23 45 56
160 56 194 0 9 7 17 15 17 18 0 18 4 -1 -83 -32 -139 -81 -219 -157 -256 -119
-57 -252 10 -306 155 -31 82 -45 149 -37 170 6 14 15 -9 31 -75 14 -51 36
-113 50 -137z m209 -284 c-6 -6 -21 -6 -39 -1 -30 9 -30 9 10 10 25 1 36 -2
29 -9z m-432 -30 c3 -17 1 -33 -4 -36 -4 -3 -8 11 -8 30 0 44 6 47 12 6z m796
-35 c0 -16 -2 -15 -8 5 -4 14 -8 34 -8 45 0 16 2 15 8 -5 4 -14 8 -34 8 -45z
m-813 -55 c12 -19 81 -48 130 -55 82 -11 105 -16 105 -25 0 -5 -17 -12 -37
-15 -21 -4 -74 -17 -118 -30 -44 -12 -102 -26 -129 -29 -55 -7 -77 -24 -93
-76 -7 -21 -11 -27 -12 -15 0 11 8 38 19 60 11 22 19 46 20 54 0 8 7 38 17 67
13 43 21 54 47 62 42 13 44 14 51 2z m871 -12 c4 -7 3 -8 -4 -4 -7 4 -12 5
-12 2 0 -3 12 -13 28 -21 l27 -16 -34 5 c-18 4 -40 6 -47 6 -28 0 -7 25 33 39
1 1 5 -4 9 -11z m-989 -61 c4 -5 -15 -71 -39 -129 -6 -16 -15 -28 -21 -28 -6
0 -7 3 -4 6 7 8 -28 60 -58 87 -34 30 -82 47 -136 47 -29 0 -50 3 -47 6 17 16
289 26 305 11z m1338 -6 c28 -9 27 -9 -18 -10 -64 -1 -121 -32 -159 -86 -28
-40 -33 -43 -44 -27 -7 9 -21 41 -30 70 -15 46 -15 55 -3 64 17 11 210 3 254
-11z m-1655 -25 c0 -2 -9 -6 -20 -9 -11 -3 -18 -1 -14 4 5 9 34 13 34 5z
m1676 -17 c74 -36 94 -91 60 -167 -17 -37 -22 -41 -76 -52 -76 -16 -103 -8
-129 36 -43 72 -20 150 56 189 36 19 35 19 89 -6z m-1519 -21 c17 -18 34 -44
38 -56 11 -36 -3 -88 -31 -122 -30 -35 -65 -39 -137 -13 -40 14 -49 22 -57 53
-18 66 -13 95 26 134 31 31 42 36 83 36 40 0 52 -5 78 -32z m903 -12 c25 -10
54 -20 65 -22 66 -12 121 -29 131 -38 6 -7 12 -38 12 -70 1 -73 -19 -99 -69
-93 l-34 4 38 1 c27 2 37 6 37 18 0 13 -7 15 -31 10 -17 -3 -40 -6 -50 -6 -12
0 -21 -12 -28 -37 -15 -54 -16 -53 33 -53 l45 0 -26 -62 c-50 -125 -72 -158
-111 -175 -50 -22 -396 -27 -413 -6 -6 7 -19 13 -28 13 -34 1 -81 71 -102 153
-6 26 -16 50 -20 53 -20 12 -7 24 26 24 19 0 35 3 35 8 0 4 4 24 9 45 8 35 8
38 -12 35 -14 -2 -24 -14 -29 -35 -12 -48 -31 -42 -23 7 6 36 5 40 -13 40 -11
0 -23 -6 -26 -12 -9 -23 -34 21 -41 73 -4 28 -5 52 -2 55 3 3 51 21 108 41 84
28 127 37 219 43 158 10 247 6 300 -14z m369 -91 c-1 -15 -4 -13 -14 10 -19
40 -18 67 0 35 8 -14 14 -34 14 -45z m-209 -165 c0 -5 -13 -10 -30 -10 -16 0
-30 5 -30 10 0 6 14 10 30 10 17 0 30 -4 30 -10z m-1132 -166 c12 -41 8 -60
-16 -66 -51 -12 -67 24 -37 82 19 37 38 30 53 -16z m1602 -26 c0 -37 -1 -38
-35 -38 l-35 0 5 43 c6 51 33 77 52 50 7 -9 13 -34 13 -55z m-1586 -93 c-8
-103 -20 -127 -52 -106 -15 9 -44 110 -36 123 3 5 25 8 47 6 35 -2 42 -6 41
-23z m1596 8 c-1 -30 -25 -114 -33 -114 -4 1 -13 1 -20 1 -14 0 -40 107 -30
123 2 4 22 7 44 7 31 0 39 -4 39 -17z m-1543 -346 c10 -16 -14 -23 -72 -21
-61 2 -78 10 -55 25 19 12 119 9 127 -4z m1537 7 c35 -13 13 -24 -48 -24 -60
0 -84 8 -69 24 8 8 96 8 117 0z m-1634 -118 c18 -27 17 -54 -3 -67 -5 -3 6 -9
25 -14 18 -4 27 -9 21 -12 -20 -8 -15 -39 10 -57 12 -9 17 -14 10 -11 -17 8
-29 -61 -13 -80 10 -12 8 -18 -6 -32 -17 -17 -18 -17 -11 0 4 11 -1 25 -13 37
-11 11 -20 30 -20 43 0 12 -8 27 -19 34 -16 10 -18 8 -15 -13 2 -18 -1 -22 -9
-16 -7 5 -30 12 -52 15 -39 6 -41 4 -67 -37 -16 -24 -28 -50 -28 -57 0 -8 -12
-23 -27 -33 -14 -11 -23 -14 -19 -8 3 6 1 14 -5 17 -7 5 -2 16 14 34 13 14 36
47 50 72 23 40 24 48 11 53 -10 4 -12 11 -6 23 5 10 14 44 21 75 7 31 20 67
30 80 10 13 21 32 25 43 7 18 11 17 43 -20 19 -22 43 -53 53 -69z m208 -24 c3
-9 -2 -13 -14 -10 -9 1 -19 9 -22 16 -3 9 2 13 14 10 9 -1 19 -9 22 -16z
m1222 8 c0 -5 -9 -10 -21 -10 -11 0 -17 5 -14 10 3 6 13 10 21 10 8 0 14 -4
14 -10z m-1271 -37 c8 -14 11 -15 11 -3 0 11 4 9 12 -5 17 -28 18 -45 7 -67
-14 -26 -26 -23 -59 16 -17 18 -44 40 -62 47 -32 13 -32 13 -8 20 48 13 89 10
99 -8z m1386 7 c-12 -4 -42 -29 -68 -56 -49 -50 -64 -50 -72 -3 -8 48 22 66
110 67 36 1 44 -2 30 -8z m160 -50 c3 -6 -1 -7 -9 -4 -18 7 -21 14 -7 14 6 0
13 -4 16 -10z m35 -25 c14 -19 14 -19 -2 -6 -10 7 -18 18 -18 24 0 6 1 8 3 6
1 -2 9 -13 17 -24z m-60 -9 c34 -13 32 -13 -55 -18 -49 -2 -92 -3 -94 -1 -8 6
65 32 89 32 14 0 41 -6 60 -13z m-1473 -112 c-3 -3 -12 -4 -19 -1 -8 3 -5 6 6
6 11 1 17 -2 13 -5z m1216 -1 c-7 -2 -19 -2 -25 0 -7 3 -2 5 12 5 14 0 19 -2
13 -5z m171 -3 c30 -11 31 -22 8 -72 l-18 -38 -17 30 c-10 17 -23 27 -31 24
-25 -10 -28 16 -4 41 26 28 28 28 62 15z m-1631 -7 c-7 -2 -19 -2 -25 0 -7 3
-2 5 12 5 14 0 19 -2 13 -5z m17 -28 c18 -22 20 -73 4 -79 -8 -3 -14 0 -14 6
0 6 -6 19 -14 27 -7 9 -17 26 -20 39 -6 17 -3 22 12 22 11 0 25 -7 32 -15z
m1769 -157 l1 -37 -30 17 c-28 16 -32 16 -59 0 -30 -16 -41 -14 -41 7 0 7 16
15 36 18 43 7 74 32 75 61 1 19 2 18 9 -4 4 -14 8 -42 9 -62z m-1726 55 c62
-6 78 -16 49 -32 -23 -12 -104 -2 -99 13 2 7 -22 16 -62 23 l-66 12 60 -5 c33
-2 86 -7 118 -11z m-213 -7 c0 -21 39 -46 71 -46 32 0 38 -6 32 -30 -5 -17 -7
-17 -20 -5 -17 18 -74 20 -91 3 -9 -9 -12 0 -12 40 0 29 5 52 10 52 6 0 10 -6
10 -14z m1703 8 c23 -4 37 -11 37 -20 0 -10 -14 -14 -55 -14 -47 0 -55 3 -55
18 0 20 15 24 73 16z m66 -86 c0 -28 -2 -30 -9 -13 -12 28 -12 45 0 45 6 0 10
-15 9 -32z m-1579 9 c0 -7 -6 -21 -13 -32 -13 -16 -14 -15 -9 13 4 31 22 46
22 19z m810 -27 c0 -5 -4 -10 -10 -10 -5 0 -10 5 -10 10 0 6 5 10 10 10 6 0
10 -4 10 -10z m-70 -10 c0 -6 -27 -10 -61 -10 -37 0 -58 4 -54 10 3 6 31 10
61 10 30 0 54 -4 54 -10z m247 -5 c2 -6 -20 -9 -57 -7 -35 2 -58 8 -54 13 8
13 106 7 111 -6z m-1097 -16 c12 -7 11 -8 -6 -9 -11 0 -29 7 -40 16 -18 14
-18 15 6 8 14 -3 32 -10 40 -15z m1095 -10 c4 -5 4 -21 1 -35 l-6 -24 -180 0
-180 0 0 28 c0 16 3 32 7 35 11 12 351 8 358 -4z m-911 -15 c33 -13 14 -24
-39 -24 -51 0 -72 12 -42 23 18 8 63 8 81 1z m1460 0 c34 -13 13 -24 -44 -24
-47 0 -60 3 -60 15 0 11 12 15 44 15 24 0 51 -3 60 -6z m-1679 -85 c11 -17 -1
-21 -15 -4 -8 9 -8 15 -2 15 6 0 14 -5 17 -11z m965 -14 c0 -16 -6 -25 -15
-25 -9 0 -15 9 -15 25 0 16 6 25 15 25 9 0 15 -9 15 -25z m-753 -31 c13 -4 20
-10 17 -15 -7 -12 -104 -12 -104 0 0 16 50 25 87 15z m1461 0 c41 -11 23 -25
-30 -22 -30 2 -53 8 -56 16 -4 13 45 17 86 6z m-1658 -93 c0 -2 -9 4 -20 14
-11 10 -20 30 -20 44 0 23 2 21 20 -14 11 -22 20 -41 20 -44z m1248 16 c2 -10
-3 -17 -11 -17 -28 0 -47 12 -47 30 0 15 5 17 28 11 15 -4 28 -15 30 -24z
m-558 -13 c0 -30 4 -37 33 -48 17 -8 55 -17 82 -20 28 -4 55 -14 62 -23 10
-13 34 -15 165 -12 l153 4 -1 -45 c-2 -65 -41 -138 -91 -174 -37 -26 -53 -30
-128 -34 -117 -6 -166 9 -211 64 -38 46 -71 125 -69 161 3 34 -33 42 -56 12
-16 -22 -18 -22 -25 -6 -11 30 2 116 21 137 10 11 29 20 42 20 20 0 23 -5 23
-36z m-480 -44 c0 -5 -23 -10 -51 -10 -31 0 -48 4 -44 10 3 6 26 10 51 10 24
0 44 -4 44 -10z m1470 0 c0 -5 -22 -10 -49 -10 -28 0 -53 5 -56 10 -4 6 15 10
49 10 31 0 56 -4 56 -10z m-69 -282 c22 -6 39 -17 39 -26 0 -10 -5 -12 -17 -6
-10 4 -49 9 -88 11 -38 1 -72 3 -75 3 -10 3 65 28 84 29 10 1 36 -4 57 -11z
m-2095 -92 c8 -18 8 -31 -2 -55 l-13 -31 -461 0 c-253 0 -460 4 -460 8 0 4 19
22 42 40 29 23 53 32 82 34 23 0 52 2 66 4 49 6 448 21 590 22 144 2 145 2
156 -22z m2161 -49 c32 -36 32 -37 28 -114 -2 -43 -7 -132 -10 -198 -7 -172
-33 -374 -53 -412 l-17 -33 -87 0 c-49 0 -88 1 -88 3 0 1 -7 34 -15 72 -16 76
-35 317 -40 513 -4 155 5 176 85 206 8 3 48 4 89 2 71 -3 76 -5 108 -39z
m-3186 10 c-6 -8 -8 -17 -4 -21 19 -18 -35 -26 -182 -25 -167 1 -466 14 -405
17 90 5 333 24 400 31 41 5 104 9 139 10 52 1 61 -1 52 -12z m3439 -27 c49 -6
44 -7 -47 -9 -63 0 -103 3 -103 9 0 11 69 12 150 0z m275 -50 c149 -4 282 -13
296 -19 44 -16 79 -60 125 -155 24 -50 44 -97 44 -103 0 -10 -94 -13 -435 -13
l-435 0 0 113 c0 61 -3 129 -6 150 l-7 37 74 0 c41 -1 196 -5 344 -10z m805
-80 c253 -31 609 -86 646 -101 12 -4 41 -27 65 -51 l44 -43 -250 -7 c-137 -4
-369 -7 -515 -5 l-265 2 -33 96 c-27 79 -31 100 -22 123 9 25 14 27 48 22 20
-3 147 -19 282 -36z m-2286 -11 c50 -4 120 -12 155 -18 49 -9 81 -9 130 0 36
6 107 14 157 18 53 3 98 12 107 20 16 12 17 3 17 -125 1 -144 18 -391 46 -649
9 -82 17 -249 19 -369 2 -121 7 -237 10 -258 7 -37 6 -38 -24 -44 -30 -6 -31
-9 -31 -55 0 -42 3 -49 20 -49 11 0 20 -7 20 -15 0 -7 7 -18 16 -23 11 -6 13
-11 5 -16 -14 -9 -15 -266 -1 -426 6 -63 22 -157 36 -208 15 -51 27 -114 28
-140 l1 -47 -466 -3 -466 -2 -5 52 c-3 29 1 75 9 107 8 31 21 83 30 116 11 42
16 130 19 300 5 284 8 305 34 305 19 0 20 7 18 173 0 99 -4 153 -8 127 l-6
-45 -8 40 c-16 88 -19 94 -26 50 l-6 -40 -6 40 c-8 50 -1 279 12 443 25 305
30 378 35 542 2 96 5 188 5 204 0 25 2 27 17 15 9 -8 53 -17 107 -20z m3283
-145 c89 -15 160 -31 157 -35 -9 -15 -312 -11 -321 4 -11 17 -15 57 -6 57 4 0
81 -12 170 -26z m-1316 -82 c3 -4 25 -52 49 -107 23 -55 58 -131 76 -170 l34
-70 -33 -12 -32 -11 32 -1 c17 -1 38 -8 47 -16 18 -18 27 -19 23 -2 -1 9 122
13 585 15 l588 2 20 -23 c12 -13 84 -113 161 -223 l141 -199 -230 -5 c-127 -3
-234 -8 -238 -12 -4 -4 102 -7 236 -7 192 1 245 -2 255 -12 25 -26 375 -538
375 -549 0 -7 -233 -9 -741 -8 l-742 3 -79 195 c-44 107 -81 197 -84 199 -21
21 -3 -35 62 -198 42 -105 74 -195 70 -199 -4 -4 -164 -9 -354 -12 l-347 -5
360 -5 360 -5 142 -350 c78 -192 142 -358 142 -368 1 -16 -44 -17 -851 -15
l-853 3 -32 274 c-18 150 -35 276 -38 279 -16 16 -13 -30 15 -278 16 -150 28
-275 26 -277 -3 -3 -50 -7 -105 -10 l-101 -6 0 31 c0 45 20 131 41 178 10 23
21 59 24 80 14 108 24 377 25 690 0 391 2 430 30 669 11 94 27 253 35 354 9
102 19 188 25 191 12 8 874 0 881 -8z m1160 -79 c35 -48 92 -125 127 -172 34
-46 62 -88 62 -91 0 -9 -1110 -23 -1143 -15 -15 4 -29 18 -35 33 -6 15 -35 96
-65 180 l-54 152 522 0 523 0 63 -87z m-3263 -1005 c13 -13 16 -59 6 -95 -7
-27 -34 -31 -34 -5 0 14 -2 15 -10 2 -8 -13 -10 -12 -10 3 0 28 21 107 29 107
4 0 12 -5 19 -12z m2990 -1107 c12 -7 402 -962 402 -983 0 -4 -227 -8 -504 -8
l-503 0 -44 24 c-24 13 -60 27 -79 31 -42 8 -140 54 -140 66 0 5 -5 9 -11 9
-6 0 -23 8 -37 18 -30 20 -112 53 -212 84 -36 11 -92 33 -125 49 -33 15 -89
33 -125 39 -89 16 -135 29 -205 60 l-60 27 -28 249 c-16 137 -31 268 -34 291
l-6 43 414 3 c1038 6 1285 6 1297 -2z m-3275 -103 c4 -60 2 -106 -3 -113 -5
-7 -19 -55 -29 -107 -11 -52 -29 -130 -41 -174 -27 -105 -38 -246 -20 -279 19
-36 124 -87 185 -91 55 -3 116 14 146 42 10 9 27 34 36 56 9 21 20 37 25 36
27 -10 148 -107 153 -123 4 -11 36 -48 73 -82 l67 -63 -474 0 -473 0 5 28 c3
15 40 234 83 487 43 253 82 466 87 473 6 8 38 12 92 12 l82 0 6 -102z m1137
17 c0 -47 -4 -85 -8 -85 -22 0 -45 -81 -52 -190 -5 -63 -13 -131 -19 -150 -23
-73 -6 -236 28 -270 54 -54 160 -90 236 -79 90 12 124 46 128 126 2 31 11 43
19 26 2 -5 40 -32 86 -62 62 -41 82 -59 82 -76 0 -12 3 -50 6 -84 l7 -61 -105
0 c-67 0 -108 4 -116 12 -7 7 -12 9 -12 4 0 -4 -14 2 -31 14 -17 13 -56 26
-87 31 -97 14 -116 21 -149 54 -33 35 -71 54 -214 110 -48 18 -95 38 -105 44
-32 17 -116 41 -144 41 -15 0 -97 35 -181 78 l-154 78 -6 40 c-8 50 -23 85
-46 106 -33 30 -41 44 -48 89 -4 24 -20 68 -36 98 -26 50 -28 60 -22 123 l6
68 468 0 469 0 0 -85z m436 -200 c17 -154 30 -281 29 -283 -1 -1 -15 4 -31 12
-16 7 -43 19 -61 27 -25 10 -32 21 -37 51 -5 28 -21 53 -61 94 -37 39 -55 65
-55 83 -1 14 -9 51 -20 81 -21 59 -24 99 -14 174 l7 47 106 -3 106 -3 31 -280z
m-1508 50 c-2 -14 -7 -26 -13 -26 -5 0 -11 12 -13 26 -2 18 1 25 13 25 12 0
15 -7 13 -25z m79 -22 c-3 -10 -5 -2 -5 17 0 19 2 27 5 18 2 -10 2 -26 0 -35z
m40 15 c-3 -7 -5 -2 -5 12 0 14 2 19 5 13 2 -7 2 -19 0 -25z m960 -5 c-3 -10
-5 -4 -5 12 0 17 2 24 5 18 2 -7 2 -21 0 -30z m45 1 c4 -32 3 -34 -9 -18 -14
20 -17 37 -6 47 10 11 11 9 15 -29z m98 11 c0 -14 -4 -25 -9 -25 -12 0 -19 21
-13 38 8 21 22 13 22 -13z m-1167 1 c4 -9 -3 -16 -19 -19 -14 -2 -24 0 -24 8
0 26 34 35 43 11z m1131 -1 c4 -11 -2 -15 -24 -15 -29 0 -38 9 -23 23 12 12
41 7 47 -8z m-85 -75 c-16 -11 -25 11 -14 38 6 15 9 14 18 -6 8 -18 8 -25 -4
-32z m-1143 -8 c-15 -15 -16 -14 -16 9 0 33 11 44 23 23 6 -11 4 -21 -7 -32z
m154 17 c0 -20 -15 -26 -25 -9 -9 15 3 43 15 35 5 -3 10 -15 10 -26z m1138 2
c3 -16 -1 -22 -10 -19 -7 3 -15 15 -16 27 -3 16 1 22 10 19 7 -3 15 -15 16
-27z m471 -647 l66 -44 -86 0 -86 0 -10 81 -9 81 30 -37 c16 -20 59 -57 95
-81z"/>
<path d="M3917 5893 c-12 -11 -8 -23 8 -23 8 0 15 7 15 15 0 16 -12 20 -23 8z"/>
<path d="M3781 5829 c-7 -23 -10 -43 -7 -46 11 -11 35 7 38 29 4 23 4 23 18
-4 7 -16 19 -28 26 -28 6 0 15 12 18 28 4 15 9 35 12 45 3 11 0 17 -10 17 -8
0 -18 -14 -22 -32 l-7 -33 -14 33 c-18 44 -37 40 -52 -9z"/>
<path d="M4214 5855 c-10 -24 6 -35 49 -33 l42 1 -38 4 c-46 5 -45 28 1 28 16
0 34 3 38 8 4 4 -14 7 -40 7 -31 0 -48 -5 -52 -15z"/>
<path d="M4238 5783 c12 -2 30 -2 40 0 9 3 -1 5 -23 4 -22 0 -30 -2 -17 -4z"/>
<path d="M3133 5055 c-9 -24 3 -29 39 -18 l33 11 -33 1 c-19 1 -31 5 -27 11 3
6 4 10 0 10 -3 0 -8 -7 -12 -15z"/>
<path d="M3916 4535 c-6 -17 16 -31 33 -21 13 9 2 36 -14 36 -7 0 -16 -7 -19
-15z"/>
<path d="M4161 4541 c-16 -10 -6 -31 15 -31 8 0 14 9 14 20 0 22 -7 25 -29 11z"/>
<path d="M6029 2968 c4 -12 13 -24 20 -26 9 -3 9 2 0 22 -15 32 -32 35 -20 4z"/>
<path d="M6142 2635 c-23 -12 -23 -13 8 -17 18 -3 43 -3 57 0 25 5 25 5 -7 18
-18 8 -33 14 -34 13 0 -1 -11 -7 -24 -14z"/>
<path d="M6303 2623 c31 -2 83 -2 115 0 31 2 5 3 -58 3 -63 0 -89 -1 -57 -3z"/>
<path d="M6623 2623 c48 -2 125 -2 170 0 45 1 6 3 -88 3 -93 0 -130 -2 -82 -3z"/>
<path d="M4867 2046 c-16 -12 -16 -14 -1 -20 8 -3 27 -3 40 0 23 6 23 7 7 20
-22 17 -24 17 -46 0z"/>
<path d="M1355 3481 c-19 -8 -19 -8 3 -15 27 -9 84 2 76 15 -6 11 -51 11 -79
0z"/>
<path d="M2471 3481 c-11 -7 -9 -10 8 -16 24 -7 61 2 61 16 0 11 -50 12 -69 0z"/>
<path d="M1075 3090 c-4 -6 7 -10 24 -10 17 0 31 5 31 10 0 6 -11 10 -24 10
-14 0 -28 -4 -31 -10z"/>
<path d="M2300 3090 c0 -5 9 -10 19 -10 11 0 23 5 26 10 4 6 -5 10 -19 10 -14
0 -26 -4 -26 -10z"/>
<path d="M730 2620 c-12 -8 -9 -10 13 -10 15 0 27 5 27 10 0 13 -20 13 -40 0z"/>
<path d="M2085 2620 c-4 -6 5 -10 19 -10 14 0 26 5 26 10 0 6 -9 10 -19 10
-11 0 -23 -4 -26 -10z"/>
<path d="M281 2031 c-9 -6 -10 -11 -2 -15 14 -9 51 2 51 15 0 11 -30 12 -49 0z"/>
<path d="M1805 2030 c-4 -6 7 -10 24 -10 17 0 31 5 31 10 0 6 -11 10 -24 10
-14 0 -28 -4 -31 -10z"/>
</g>
</svg>
