<?xml version="1.0" standalone="no"?>
<!DOCTYPE svg PUBLIC "-//W3C//DTD SVG 20010904//EN"
 "http://www.w3.org/TR/2001/REC-SVG-20010904/DTD/svg10.dtd">
<svg version="1.0" xmlns="http://www.w3.org/2000/svg"
 width="977.000000pt" height="815.000000pt" viewBox="0 0 977.000000 815.000000"
 preserveAspectRatio="xMidYMid meet">

<g transform="translate(0.000000,815.000000) scale(0.100000,-0.100000)"
fill="#000000" stroke="none">
<path d="M4722 7869 c-124 -16 -179 -72 -260 -262 -39 -91 -42 -106 -42 -186
0 -95 22 -295 40 -363 14 -51 52 -127 91 -185 16 -23 29 -44 29 -47 0 -3 -17
-7 -37 -9 -37 -4 -37 -4 7 -6 25 -1 54 -8 64 -16 19 -14 18 -15 -12 -15 -18 0
-44 -7 -57 -16 -23 -15 -25 -15 -25 0 0 15 -97 16 -1133 16 -624 0 -1641 -3
-2260 -7 l-1127 -6 0 -1659 c0 -1121 3 -1658 10 -1658 6 0 83 16 173 36 195
42 317 55 317 32 0 -14 -300 -274 -369 -320 -17 -11 -45 -18 -78 -18 -29 0
-53 -4 -53 -10 0 -5 16 -10 35 -10 19 0 35 -4 35 -9 0 -6 -16 -22 -35 -37 -19
-14 -35 -35 -35 -45 0 -11 2 -19 5 -19 3 0 37 25 76 55 l71 55 633 0 c349 0
636 -3 638 -7 5 -8 -210 -263 -330 -393 l-61 -65 -516 3 c-362 2 -516 0 -516
-7 0 -8 153 -11 506 -11 294 0 504 -4 502 -9 -2 -7 -419 -475 -501 -564 l-26
-27 -241 0 c-150 0 -240 -4 -240 -10 0 -6 88 -11 230 -12 l231 -3 -231 -258
c-149 -167 -230 -265 -230 -279 0 -19 5 -16 34 18 19 21 130 147 248 279 l213
240 848 3 c466 1 847 0 847 -3 0 -3 -56 -108 -123 -233 -68 -125 -166 -305
-216 -399 l-93 -173 -879 0 c-579 0 -879 -3 -879 -10 0 -7 297 -10 871 -10
825 0 871 -1 864 -17 -15 -40 -599 -1119 -609 -1125 -6 -4 -261 -4 -568 -1
-420 5 -558 3 -558 -5 0 -9 71 -12 268 -12 438 0 844 -12 838 -24 -17 -44 -18
-46 -2 -46 8 0 22 14 31 30 l16 30 1200 0 1201 0 -7 -30 c-6 -26 -4 -30 14
-30 14 0 21 8 23 28 l3 27 602 -2 601 -1 47 -26 46 -26 636 0 c350 0 633 3
630 6 -3 4 -35 15 -69 25 l-63 18 160 0 c153 1 162 0 204 -24 l43 -25 582 1
c533 1 578 2 546 16 -24 11 -77 17 -165 20 -71 2 -131 6 -134 8 -7 7 618 6
916 -2 243 -6 263 -8 269 -25 3 -10 14 -18 25 -18 16 0 19 5 14 20 -6 20 -2
20 644 20 642 0 844 11 449 23 -112 4 -409 7 -660 7 l-457 0 -39 72 c-149 272
-552 1061 -546 1069 4 7 309 8 955 3 879 -7 949 -6 949 9 0 16 -74 17 -964 17
l-965 0 -54 102 c-156 296 -357 688 -357 697 0 12 1390 14 1580 2 l105 -6 293
-335 c162 -184 309 -353 328 -375 l34 -40 0 31 c0 26 -44 82 -301 375 l-300
344 300 3 c258 2 301 4 301 17 0 13 -43 15 -315 15 l-314 0 -100 113 c-231
262 -410 472 -405 477 3 3 260 3 570 1 545 -3 564 -3 564 15 0 18 -20 19 -567
16 -313 -1 -578 0 -590 3 -13 3 -96 95 -202 225 l-181 220 48 0 c65 0 1232
-261 1357 -304 55 -19 108 -37 118 -41 16 -7 17 92 17 1984 l0 1991 -642 1
c-3129 8 -4063 14 -4063 29 0 11 -15 16 -57 20 l-58 5 31 45 c50 74 76 131 92
205 26 117 50 344 44 430 -4 73 -9 89 -56 175 -28 52 -65 109 -83 127 -50 51
-151 76 -256 62z m160 -318 c23 -20 25 -27 16 -52 -9 -27 -14 -29 -59 -29 -27
0 -57 4 -67 9 -9 5 -33 17 -54 27 -34 17 -35 19 -21 40 26 40 141 43 185 5z
m218 -90 c0 -28 -13 -33 -38 -15 -31 21 -27 34 8 34 23 0 30 -5 30 -19z m210
-891 c0 -5 -9 -10 -20 -10 -11 0 -20 5 -20 10 0 6 9 10 20 10 11 0 20 -4 20
-10z m-622 -15 c-7 -7 -168 -8 -175 -1 -4 3 36 6 87 6 51 0 91 -2 88 -5z m381
1 c-7 -7 -189 -9 -196 -2 -3 3 40 6 97 6 57 0 101 -2 99 -4z m-1290 -214 c37
-30 48 -64 26 -82 -11 -9 -26 -5 -72 17 -32 15 -71 28 -88 28 -23 0 -31 5 -33
22 -8 58 101 68 167 15z m2165 28 c20 -7 26 -17 26 -39 0 -30 -26 -46 -50 -31
-7 5 -35 -5 -67 -22 -62 -34 -83 -31 -83 10 0 34 24 59 77 78 46 16 64 17 97
4z m-1874 -146 c0 -29 -3 -35 -16 -30 -9 3 -27 6 -40 6 -20 0 -24 5 -24 30 0
28 2 30 40 30 39 0 40 -1 40 -36z m1518 4 c3 -25 0 -28 -27 -29 -17 -1 -37 -2
-43 -3 -15 -1 -22 28 -14 50 4 11 17 14 43 12 33 -3 38 -7 41 -30z m-674 -32
c45 -19 53 -34 29 -57 -16 -17 -35 -20 -129 -21 -110 -1 -174 7 -174 23 0 32
25 58 59 62 88 9 184 6 215 -7z m-491 -1003 c-24 -2 -62 -2 -85 0 -24 2 -5 4
42 4 47 0 66 -2 43 -4z m825 0 c-10 -2 -28 -2 -40 0 -13 2 -5 4 17 4 22 1 32
-1 23 -4z m-1487 -82 c-12 -8 -51 -4 -51 5 0 2 15 4 33 4 22 0 28 -3 18 -9z
m2094 -1 c-3 -5 -12 -10 -20 -10 -8 0 -17 5 -20 10 -4 6 5 10 20 10 15 0 24
-4 20 -10z m-2238 -386 c-3 -3 -12 -4 -19 -1 -8 3 -5 6 6 6 11 1 17 -2 13 -5z
m2390 0 c-3 -3 -12 -4 -19 -1 -8 3 -5 6 6 6 11 1 17 -2 13 -5z m-2399 -36 c-3
-7 -11 -13 -18 -13 -7 0 -15 6 -17 13 -3 7 4 12 17 12 13 0 20 -5 18 -12z
m2387 2 c3 -6 -1 -13 -10 -16 -19 -8 -30 0 -20 15 8 14 22 14 30 1z m-595
-555 l55 -15 -49 6 c-27 3 -58 9 -70 14 -34 14 3 11 64 -5z m-1183 -1 c-3 -3
-12 -4 -19 -1 -8 3 -5 6 6 6 11 1 17 -2 13 -5z m375 -23 l4 -30 -127 -31 c-70
-18 -132 -29 -138 -25 -35 21 23 54 174 98 74 22 82 21 87 -12z m544 3 l132
-26 -9 -32 c-5 -17 -9 -31 -9 -31 0 -4 -177 16 -208 23 -23 5 -46 10 -50 11
-8 1 -13 49 -7 69 6 16 -1 16 151 -14z m358 -3 c4 -5 -3 -7 -14 -4 -23 6 -26
13 -6 13 8 0 17 -4 20 -9z m-2458 -356 c6 -2 10 -16 9 -32 -3 -30 -40 -130
-57 -150 -8 -10 -134 -13 -571 -13 l-561 0 49 50 c27 28 54 50 61 50 6 0 18 7
25 16 22 27 48 32 265 49 451 35 731 46 780 30z m644 -13 c150 -7 155 -8 158
-29 2 -16 -5 -26 -30 -39 -53 -26 -68 -44 -68 -81 l0 -33 -345 0 -346 0 15 28
c33 60 77 118 110 142 34 26 36 26 193 22 87 -2 228 -7 313 -10z m750 -53 l26
-32 97 26 97 25 0 -34 c0 -19 5 -34 10 -34 6 0 10 -18 10 -40 l0 -40 -120 0
-120 0 0 38 c0 42 -13 58 -67 86 -43 22 -42 36 4 36 29 0 42 -7 63 -31z m703
-20 c6 6 24 11 40 11 l30 0 -27 -21 c-20 -16 -26 -29 -26 -60 l0 -39 -120 0
-120 0 0 40 c0 22 5 40 10 40 6 0 10 15 10 34 l0 34 96 -25 c68 -17 100 -21
107 -14z m-3283 13 c0 -4 -5 -13 -12 -20 -9 -9 -9 -12 1 -12 7 0 -4 -20 -25
-45 l-36 -45 -417 1 c-815 3 -834 20 -91 83 557 48 580 50 580 38z m4250 -111
c17 -7 -20 -10 -117 -10 -143 -1 -143 -1 -143 22 l0 23 118 -13 c64 -7 128
-17 142 -22z m-4352 -41 c-2 -6 -67 -86 -146 -179 -91 -108 -150 -170 -165
-172 -12 -2 -299 -2 -637 1 l-614 5 44 36 c183 146 400 308 421 312 53 10
1101 7 1097 -3z m1222 5 c0 -6 -170 -348 -177 -355 -3 -3 -48 -8 -101 -11
l-97 -6 87 -1 c48 -1 90 -6 93 -12 3 -5 -4 -27 -15 -50 -11 -22 -16 -40 -12
-40 5 0 20 20 33 44 13 25 32 47 44 50 11 3 232 6 490 6 l470 0 -2 -132 c-1
-73 1 -123 3 -111 7 30 59 39 136 23 48 -11 61 -11 68 -1 5 9 31 11 96 7 49
-4 160 -9 247 -12 l157 -6 0 -28 0 -28 -97 -8 c-99 -7 -439 1 -547 13 l-59 6
7 -79 c4 -43 10 -87 12 -97 5 -16 -27 -17 -613 -15 -582 3 -618 4 -617 21 2
23 -9 22 -31 -3 -14 -16 -32 -20 -84 -22 l-66 -2 63 -3 c36 -2 62 -9 62 -15 0
-6 -71 -141 -157 -300 -116 -213 -163 -290 -178 -294 -12 -3 -391 -2 -842 3
l-821 8 225 255 c123 140 242 274 264 298 l40 42 552 2 552 3 -540 5 c-297 3
-541 7 -543 8 -6 4 40 57 215 250 97 106 184 197 194 203 10 5 221 10 496 11
l478 3 -467 5 c-256 3 -469 8 -473 12 -7 7 40 60 226 256 l98 102 565 0 c312
0 566 -2 566 -5z m775 -127 c6 -122 8 -135 30 -153 18 -16 22 -27 18 -52 l-5
-33 -474 0 c-260 0 -475 4 -478 8 -5 8 168 316 195 349 9 10 81 13 359 13
l348 0 7 -132z m1368 123 l37 -1 0 -94 0 -95 -37 -3 -38 -3 -3 -82 -3 -83
-279 0 -280 0 0 85 0 85 -40 0 -40 0 0 99 0 99 323 -3 c177 -1 339 -3 360 -4z
m1439 -26 c46 -16 49 -20 130 -163 46 -81 84 -153 86 -159 3 -10 -99 -13 -487
-13 l-490 0 -3 33 c-2 23 3 37 19 50 19 15 22 31 28 148 l8 132 331 -6 c275
-4 339 -8 378 -22z m428 -66 c332 -68 1104 -246 1107 -256 6 -17 -1222 -18
-1237 -1 -7 7 -40 74 -75 148 -44 94 -59 137 -51 143 15 10 84 1 256 -34z
m-2491 -235 c2 -2 -42 -4 -98 -4 -65 0 -100 4 -96 10 5 9 183 3 194 -6z m749
-1 c-26 -2 -71 -2 -100 0 -29 2 -8 3 47 3 55 0 79 -1 53 -3z m-168 -278 l0
-235 -280 0 -280 0 0 235 0 235 280 0 280 0 0 -235z m1773 135 c27 -47 83
-149 124 -227 l75 -143 -637 0 -637 0 6 28 c3 15 8 56 11 92 l7 65 -124 -9
c-138 -9 -298 -9 -465 0 l-113 6 0 33 0 32 248 5 c163 4 249 2 254 -5 4 -7 16
-6 36 2 43 18 159 5 165 -18 3 -9 5 39 6 107 l1 122 497 -2 497 -3 49 -85z
m1322 37 c135 -143 361 -390 363 -398 2 -6 -266 -8 -720 -7 l-723 3 -102 201
c-56 110 -105 214 -109 229 l-7 28 629 -7 629 -6 40 -43z m-4062 -74 c-7 -2
-21 -2 -30 0 -10 3 -4 5 12 5 17 0 24 -2 18 -5z m1384 1 c-3 -3 -12 -4 -19 -1
-8 3 -5 6 6 6 11 1 17 -2 13 -5z m-1668 -419 c6 -42 16 -153 22 -247 6 -95 15
-180 20 -189 5 -10 9 -36 9 -58 l0 -41 -809 0 c-493 0 -812 4 -816 9 -5 10
276 551 303 584 14 16 57 17 637 17 l623 0 11 -75z m1251 53 c0 -56 12 -69 86
-103 l74 -34 0 -170 c0 -123 3 -173 13 -182 7 -7 11 -29 8 -55 l-3 -44 -458 0
-458 0 -4 45 c-2 29 1 46 9 49 9 4 13 53 15 183 l3 178 65 31 c83 40 90 47 90
89 l0 35 280 0 280 0 0 -22z m2137 -283 c84 -159 153 -293 153 -297 0 -5 -371
-8 -825 -8 l-825 0 0 43 c0 24 4 47 9 53 5 5 12 70 16 144 6 125 18 263 31
335 l5 30 642 -5 642 -5 152 -290z m1351 282 c13 -6 136 -140 273 -297 l250
-285 -833 -3 c-774 -2 -834 -1 -846 15 -9 13 -287 545 -300 575 -2 5 320 8
715 8 550 0 723 -3 741 -13z m-4388 -326 c0 -31 0 -31 -112 -47 -43 -6 -48 -4
-48 12 0 14 -3 15 -8 6 -11 -16 -50 -24 -58 -11 -3 5 -3 23 1 39 l7 30 109 0
109 0 0 -29z m1442 19 c32 0 36 -2 31 -22 -9 -34 -23 -48 -49 -48 -15 0 -24 6
-24 16 0 8 -5 12 -11 9 -8 -5 -133 -35 -146 -35 -2 0 -3 18 -3 40 l0 39 63 4
c34 2 71 2 82 0 11 -1 36 -3 57 -3z m-1738 -312 c3 -13 6 -58 6 -100 l0 -78
-34 0 c-41 0 -46 -10 -46 -101 l0 -70 35 7 c31 5 35 4 35 -15 0 -17 -6 -21
-35 -21 l-35 0 0 -58 c0 -32 5 -63 11 -69 13 -13 -27 -254 -46 -280 -10 -13
-134 -14 -988 -7 -537 4 -977 10 -977 14 0 9 409 771 422 788 8 9 186 12 828
12 l818 0 6 -22z m1372 -257 c-5 -257 2 -425 20 -508 l7 -33 -485 0 -485 0 16
53 c13 43 15 113 15 410 l-1 357 459 0 459 0 -5 -279z m2262 17 c73 -139 168
-322 212 -405 l81 -153 -990 0 -989 0 -6 28 c-26 126 -38 231 -37 305 l2 87
-35 0 c-19 0 -38 5 -41 10 -6 10 1 14 48 24 26 6 27 9 27 64 0 81 -8 102 -36
102 -12 0 -25 4 -28 8 -3 5 -8 48 -11 95 l-5 87 838 0 839 0 131 -252z m-3311
-105 c-3 -10 -5 -4 -5 12 0 17 2 24 5 18 2 -7 2 -21 0 -30z m1190 -5 c-3 -7
-5 -2 -5 12 0 14 2 19 5 13 2 -7 2 -19 0 -25z m-1495 -273 c4 -82 10 -121 22
-139 9 -14 16 -28 16 -31 0 -3 -27 -5 -60 -5 -71 0 -69 -12 -38 163 18 102 26
127 39 127 14 0 17 -17 21 -115z m1848 92 c0 -2 9 -53 20 -113 30 -163 32
-154 -46 -154 l-66 0 17 27 c13 19 19 55 23 135 5 105 5 108 28 108 13 0 24
-1 24 -3z m-1430 -77 c0 -5 -6 -10 -14 -10 -8 0 -18 5 -21 10 -3 6 3 10 14 10
12 0 21 -4 21 -10z m995 0 c-3 -5 -12 -10 -20 -10 -8 0 -17 5 -20 10 -4 6 5
10 20 10 15 0 24 -4 20 -10z m-1546 -227 c0 -16 -46 -273 -102 -573 l-103
-545 -1193 -3 c-1048 -2 -1192 0 -1188 13 6 15 511 960 574 1073 l35 62 989 0
989 0 -1 -27z m207 -10 c46 -60 74 -119 74 -155 0 -29 -5 -35 -39 -49 -63 -27
-76 -57 -74 -166 2 -77 -2 -105 -23 -165 -17 -51 -27 -104 -31 -173 -7 -129 5
-160 80 -210 55 -36 55 -36 175 -39 141 -2 170 4 209 44 l29 30 22 -30 c27
-36 86 -68 125 -68 16 0 41 -9 55 -21 15 -11 44 -30 64 -41 20 -11 53 -31 74
-45 l37 -25 -578 0 -577 0 5 22 c3 13 49 261 102 553 53 292 100 540 105 553
9 20 17 22 74 22 62 0 64 -1 92 -37z m1032 30 l292 -6 46 -61 c41 -56 45 -65
42 -111 l-3 -50 -55 -7 c-76 -9 -90 -29 -90 -124 0 -51 6 -89 21 -126 19 -49
20 -58 9 -117 -13 -67 -7 -232 11 -278 12 -33 43 -58 104 -87 43 -21 65 -24
155 -24 126 0 181 11 212 46 13 14 18 22 11 18 -8 -4 -7 2 2 21 8 15 15 36 15
46 0 16 2 16 28 -3 15 -11 51 -24 81 -30 30 -6 56 -11 57 -13 1 -1 10 -45 19
-97 8 -52 18 -107 21 -122 l6 -28 -170 0 -169 0 -44 33 c-71 54 -116 70 -204
74 -54 3 -88 9 -104 21 -13 9 -44 31 -70 47 -26 17 -85 68 -131 113 -85 86
-111 102 -167 106 -18 2 -68 21 -112 42 -66 33 -78 42 -74 59 3 17 -5 26 -42
44 -46 23 -202 52 -252 46 -15 -1 -33 -1 -40 2 -16 6 -17 37 -1 63 17 27 -4
129 -32 152 -11 9 -20 25 -20 37 0 30 -21 70 -39 75 -9 2 -37 7 -63 11 l-48 6
0 48 c0 41 7 57 48 114 l47 66 205 1 c113 0 337 -3 498 -7z m792 -6 c0 -2 20
-125 45 -273 25 -147 45 -273 45 -279 0 -11 -128 -14 -146 -3 -6 4 -10 24 -8
45 4 48 -13 98 -48 144 -15 20 -28 43 -28 50 0 34 -39 78 -75 85 -32 6 -35 9
-35 43 0 39 29 101 73 157 27 33 29 34 102 34 41 0 75 -2 75 -3z m2017 -5 c7
-4 145 -262 306 -572 l294 -565 -600 -3 -599 -2 -57 31 c-116 65 -127 69 -218
73 -77 4 -97 9 -165 43 -54 26 -80 45 -84 61 -3 12 -10 22 -15 22 -5 0 -9 4
-9 10 0 5 -19 27 -42 50 -39 37 -135 84 -161 78 -7 -1 -32 3 -57 9 -25 6 -67
16 -95 23 -27 6 -57 17 -65 25 -8 7 -34 19 -57 25 -30 9 -43 19 -48 37 -7 28
-59 54 -149 74 -31 7 -59 16 -62 20 -7 11 -94 518 -94 547 l0 22 983 0 c540 0
987 -4 994 -8z m-3577 -286 c0 -3 -4 -8 -10 -11 -5 -3 -10 -1 -10 4 0 6 5 11
10 11 6 0 10 -2 10 -4z m1340 -6 c0 -5 -8 -10 -17 -10 -15 0 -16 2 -3 10 19
12 20 12 20 0z m666 -769 c7 -9 24 -29 38 -46 l26 -30 -137 -3 c-89 -2 -139 1
-143 8 -4 6 -12 48 -19 93 -7 45 -14 90 -17 100 -4 13 24 3 118 -44 68 -34
128 -69 134 -78z m-328 -108 c-43 -2 -113 -2 -155 0 -43 1 -8 3 77 3 85 0 120
-2 78 -3z"/>
</g>
</svg>
